<svg xmlns="http://www.w3.org/2000/svg" xmlns:xlink="http://www.w3.org/1999/xlink" width="120" height="120" viewBox="0 0 120 120">
  <defs>
    <style>
      .cls-1 {
        fill-rule: evenodd;
        fill: url(#linear-gradient);
      }
    </style>
    <linearGradient id="linear-gradient" x1="70.143" y1="-1.031" x2="48.763" y2="120.219" gradientUnits="userSpaceOnUse">
      <stop offset="0" stop-color="red"/>
      <stop offset="1" stop-color="#770303"/>
    </linearGradient>
  </defs>
  <path id="Градиентная_заливка_1" data-name="Градиентная заливка 1" class="cls-1" d="M88.439,87.73c5.515-.247,6.824-0.737,11.2,0v3.359c-1.864,3.337-.748,8.875-6.719,11.2-3.881,2.15-10.455-2.047-16.8,0-10.36,3.344-10.709,16.982-23.515,17.917-6.941-11.881-8.764-18.523-29.114-17.917-1.143-.9-0.307-0.4-2.24-1.12-1.09-3.7-2.072-4.621-2.24-10.078a21.624,21.624,0,0,0,5.6-13.437C19.7,73.685,12.292,57.385,17.893,47.418c1.58-2.811,6.792-5.97,7.839-8.958,2.1-6-6.269-9.37-6.719-17.917,1.7-1.58,2.473-3.1,4.479-4.479,6.178-4.393,12.57,3.61,19.036,0C53.506,12.223,55.025.775,69.4,0.386v-1.12c1.131-1.109,1.107,1.1,1.12,1.12C76.46,5.417,75.728,15.392,83.96,18.3c5.71,3.326,11.143-1.623,15.677,3.359,1.238,1.55,1.673,3.217,2.239,5.6C96.857,29.58,92.484,28.9,91.8,36.22c10.136,6.7,11.523,18.251,11.2,35.833C99.817,74.175,89.254,83.708,88.439,87.73ZM50.366,31.741c-4.157,5.909-11.749,7.207-13.437,15.677,3.253,3.19,8.732,7.53,11.2,11.2,8.175,12.16,1.422,28.058,22.4,27.995,3.166-3.309,7.635-6.1,11.2-8.958-2.735-11.184-9.179-17.8-13.437-25.755l-2.24-11.2c-2.256-3.5-8.234-5.91-11.2-8.958H50.366Z"/>
</svg>
